<?xml version="1.0" encoding="utf-8"?>

<svg version="1.1" id="Layer_1" xmlns="http://www.w3.org/2000/svg" xmlns:xlink="http://www.w3.org/1999/xlink" x="0px" y="0px" viewBox="0 0 1587.88 396.84" style="enable-background:new 0 0 1587.88 396.84;" xml:space="preserve">

<g>
&#x9;<g>
&#x9;&#x9;<g>
&#x9;&#x9;&#x9;<path class="st0" d="M0,0v290.9c0,55.5,69.41,94.55,136.58,105.94c67.17-11.39,136.58-50.44,136.58-105.94V0H0z M260.83,290.9&#xA;&#x9;&#x9;&#x9;&#x9;c0,27.09-20.6,47.28-37.87,59.42c-22.54,15.88-53.92,28.22-86.38,34c-32.44-5.78-63.82-18.12-86.38-34&#xA;&#x9;&#x9;&#x9;&#x9;c-17.27-12.15-37.87-32.34-37.87-59.42v-6.58h31.72v23.37c0,0.65,0.53,1.2,1.2,1.2h21.34c0.65,0,1.2-0.55,1.2-1.2v-23.37h56.49&#xA;&#x9;&#x9;&#x9;&#x9;v23.37c0,0.65,0.53,1.2,1.2,1.2h21.32c0.67,0,1.22-0.55,1.22-1.2v-23.37h56.49v23.37c0,0.65,0.53,1.2,1.2,1.2h21.32&#xA;&#x9;&#x9;&#x9;&#x9;c0.67,0,1.2-0.55,1.2-1.2v-23.37h32.6V290.9z M147.36,248.76c-2.35-1.22-3.8-3.61-3.8-6.26V127.77c0.12-2.55,2.02-4.63,4.47-4.95&#xA;&#x9;&#x9;&#x9;&#x9;h56.36c2.58,0.34,4.53,2.56,4.53,5.18V242.5c0,2.65-1.45,5.04-3.78,6.26c-0.39,0.19-0.64,0.62-0.64,1.06v21.13h-47.61l-8.88,8.43&#xA;&#x9;&#x9;&#x9;&#x9;v-29.54C148.02,249.37,147.75,248.97,147.36,248.76z M65.24,108.47c3.15-15.49,11.47-29.72,23.46-40.13&#xA;&#x9;&#x9;&#x9;&#x9;c13.15-11.42,30-17.72,47.44-17.72s34.28,6.29,47.44,17.72c11.99,10.41,20.31,24.65,23.48,40.13H65.24z M67.82,122.82h56.35&#xA;&#x9;&#x9;&#x9;&#x9;c2.58,0.34,4.53,2.56,4.53,5.18V242.5c0,2.65-1.45,5.04-3.78,6.26c-0.39,0.19-0.64,0.62-0.64,1.06v21.13H76.66l-8.88,8.43v-29.54&#xA;&#x9;&#x9;&#x9;&#x9;c0-0.46-0.27-0.87-0.65-1.08c-2.35-1.22-3.8-3.61-3.8-6.26V127.77C63.45,125.23,65.34,123.14,67.82,122.82z M260.83,270.94&#xA;&#x9;&#x9;&#x9;&#x9;h-23.71v0.02l-8.89,8.42v-29.56c0-0.44-0.25-0.85-0.64-1.06c-2.35-1.22-3.8-3.61-3.8-6.26l-0.02-114.72&#xA;&#x9;&#x9;&#x9;&#x9;c0.14-2.53,2.03-4.61,4.53-4.95c0.6-0.09,1.04-0.6,1.04-1.2v-11.95c0-0.67-0.55-1.2-1.2-1.2h-8.63&#xA;&#x9;&#x9;&#x9;&#x9;c-3.31-19.09-13.21-36.61-27.92-49.38c-15.36-13.37-35.08-20.72-55.46-20.72c-20.38,0-40.08,7.35-55.46,20.72&#xA;&#x9;&#x9;&#x9;&#x9;c-14.69,12.76-24.61,30.29-27.92,49.38h-8.63c-0.65,0-1.2,0.53-1.2,1.2v11.95c0,0.6,0.44,1.11,1.04,1.2&#xA;&#x9;&#x9;&#x9;&#x9;c2.56,0.35,4.51,2.58,4.51,5.18V242.5c0,2.65-1.47,5.04-3.8,6.26c-0.39,0.19-0.64,0.62-0.64,1.06v21.13H12.32V12.34h248.51&#xA;&#x9;&#x9;&#x9;&#x9;V270.94z"></path>
&#x9;&#x9;</g>
&#x9;&#x9;<g>
&#x9;&#x9;&#x9;<path d="M207.05,108.47H65.24c3.15-15.49,11.47-29.72,23.46-40.13c13.15-11.42,30-17.72,47.44-17.72s34.28,6.29,47.44,17.72&#xA;&#x9;&#x9;&#x9;&#x9;C195.56,78.75,203.88,92.98,207.05,108.47z"></path>
&#x9;&#x9;</g>
&#x9;&#x9;<g>
&#x9;&#x9;&#x9;<path d="M128.69,128V242.5c0,2.65-1.45,5.04-3.78,6.26c-0.39,0.19-0.64,0.62-0.64,1.06v21.13H76.66l-8.88,8.43v-29.54&#xA;&#x9;&#x9;&#x9;&#x9;c0-0.46-0.27-0.87-0.65-1.08c-2.35-1.22-3.8-3.61-3.8-6.26V127.77c0.12-2.55,2.02-4.63,4.49-4.95h56.35&#xA;&#x9;&#x9;&#x9;&#x9;C126.75,123.16,128.69,125.39,128.69,128z"></path>
&#x9;&#x9;</g>
&#x9;&#x9;<g>
&#x9;&#x9;&#x9;<path d="M208.92,128V242.5c0,2.65-1.45,5.04-3.78,6.26c-0.39,0.19-0.64,0.62-0.64,1.06v21.13h-47.61l-8.88,8.43v-29.54&#xA;&#x9;&#x9;&#x9;&#x9;c0-0.46-0.27-0.87-0.65-1.08c-2.35-1.22-3.8-3.61-3.8-6.26V127.77c0.12-2.55,2.02-4.63,4.47-4.95h56.36&#xA;&#x9;&#x9;&#x9;&#x9;C206.98,123.16,208.92,125.39,208.92,128z"></path>
&#x9;&#x9;</g>
&#x9;&#x9;<g>
&#x9;&#x9;&#x9;<path class="st1" d="M228.23,284.33v23.37c0,0.65-0.53,1.2-1.2,1.2H205.7c-0.67,0-1.2-0.55-1.2-1.2v-23.37h-56.49v23.37&#xA;&#x9;&#x9;&#x9;&#x9;c0,0.65-0.55,1.2-1.22,1.2h-21.32c-0.67,0-1.2-0.55-1.2-1.2v-23.37H67.78v23.37c0,0.65-0.55,1.2-1.2,1.2H45.24&#xA;&#x9;&#x9;&#x9;&#x9;c-0.67,0-1.2-0.55-1.2-1.2v-23.37H12.32v6.58c0,27.09,20.6,47.28,37.87,59.42c22.56,15.88,53.94,28.22,86.38,34&#xA;&#x9;&#x9;&#x9;&#x9;c32.46-5.78,63.84-18.12,86.38-34c17.27-12.15,37.87-32.34,37.87-59.42v-6.58H228.23z M103.55,354.59H86.84v-1.63&#xA;&#x9;&#x9;&#x9;&#x9;c3.25-0.12,4.79-0.46,4.79-2.02v-16.9c0-1.27-0.23-2.05-0.8-2.6c-0.69-0.67-1.91-0.97-3.91-0.97h-0.3v-1.57l12.09-0.85v22.9&#xA;&#x9;&#x9;&#x9;&#x9;c0,1.56,1.56,1.89,4.83,2.02V354.59z M131.63,330.93l-7.46,13.22l-5.39,10.82h-5.52v-1.47l14.21-19.54l0.18-0.25h-9.58&#xA;&#x9;&#x9;&#x9;&#x9;c-3.82,0-4.67,0.92-5.43,4.1h-1.52l0.25-9.69h20.26V330.93z M149.09,355.31c-7.14,0-11.23-2.46-11.23-6.77&#xA;&#x9;&#x9;&#x9;&#x9;c0-2.65,1.75-4.69,5.22-6.06l0.28-0.11l-0.27-0.16c-2.93-1.7-4.42-3.87-4.42-6.49c0-5.04,4.05-8.27,10.32-8.27&#xA;&#x9;&#x9;&#x9;&#x9;c6.74,0,9.81,3.29,9.81,6.35c0,2.42-1.77,4.31-5.25,5.62l-0.35,0.14l0.35,0.14c4.1,1.77,6.1,4.15,6.1,7.3&#xA;&#x9;&#x9;&#x9;&#x9;C159.67,351.74,155.12,355.31,149.09,355.31z M178.07,355.22c-6.56,0-10.48-2.26-10.48-6.08c0-2.19,1.52-3.66,3.78-3.66&#xA;&#x9;&#x9;&#x9;&#x9;c2.33,0,3.39,1.79,3.39,3.54c0,1.47-0.99,2.74-1.98,3.24l-0.21,0.11l0.19,0.16c0.6,0.46,2.46,0.92,3.73,0.92&#xA;&#x9;&#x9;&#x9;&#x9;c3.68,0,5.53-2.21,5.53-6.56c0-3.91-2.03-6.15-5.57-6.15c-2.35,0-3.94,0.6-5.85,1.64l-1.31-1.04l0.55-13.19h17.47l-0.41,5.37&#xA;&#x9;&#x9;&#x9;&#x9;h-14.59l-0.3,6.21l-0.02,0.27l0.23-0.11c1.98-0.9,3.85-1.27,6.28-1.27c4.88,0,10.1,2.07,10.1,7.89&#xA;&#x9;&#x9;&#x9;&#x9;C188.61,350.7,185.32,355.22,178.07,355.22z"></path>
&#x9;&#x9;</g>
&#x9;&#x9;<g>
&#x9;&#x9;&#x9;<path d="M260.83,12.34v258.6h-23.71v0.02l-8.89,8.42v-29.56c0-0.44-0.25-0.85-0.64-1.06c-2.35-1.22-3.8-3.61-3.8-6.26&#xA;&#x9;&#x9;&#x9;&#x9;l-0.02-114.72c0.14-2.53,2.03-4.61,4.53-4.95c0.6-0.09,1.04-0.6,1.04-1.2v-11.95c0-0.67-0.55-1.2-1.2-1.2h-8.63&#xA;&#x9;&#x9;&#x9;&#x9;c-3.31-19.09-13.21-36.61-27.92-49.38c-15.36-13.37-35.08-20.72-55.46-20.72c-20.38,0-40.08,7.35-55.46,20.72&#xA;&#x9;&#x9;&#x9;&#x9;c-14.69,12.76-24.61,30.29-27.92,49.38h-8.63c-0.65,0-1.2,0.53-1.2,1.2v11.95c0,0.6,0.44,1.11,1.04,1.2&#xA;&#x9;&#x9;&#x9;&#x9;c2.56,0.35,4.51,2.58,4.51,5.18V242.5c0,2.65-1.47,5.04-3.8,6.26c-0.39,0.19-0.64,0.62-0.64,1.06v21.13H12.32V12.34H260.83z"></path>
&#x9;&#x9;</g>
&#x9;&#x9;<g>
&#x9;&#x9;&#x9;<path class="st0" d="M103.55,352.96v1.63H86.84v-1.63c3.25-0.12,4.79-0.46,4.79-2.02v-16.9c0-1.27-0.23-2.05-0.8-2.6&#xA;&#x9;&#x9;&#x9;&#x9;c-0.69-0.67-1.91-0.97-3.91-0.97h-0.3v-1.57l12.09-0.85v22.9C98.72,352.5,100.28,352.84,103.55,352.96z"></path>
&#x9;&#x9;</g>
&#x9;&#x9;<g>
&#x9;&#x9;&#x9;<path class="st0" d="M131.63,328.14v2.79l-7.46,13.22l-5.39,10.82h-5.52v-1.47l14.21-19.54l0.18-0.25h-9.58&#xA;&#x9;&#x9;&#x9;&#x9;c-3.82,0-4.67,0.92-5.43,4.1h-1.52l0.25-9.69H131.63z"></path>
&#x9;&#x9;</g>
&#x9;&#x9;<g>
&#x9;&#x9;&#x9;<path class="st0" d="M153.57,339.7l-0.35-0.14l0.35-0.14c3.48-1.31,5.25-3.2,5.25-5.62c0-3.06-3.08-6.35-9.81-6.35&#xA;&#x9;&#x9;&#x9;&#x9;c-6.28,0-10.32,3.24-10.32,8.27c0,2.62,1.49,4.79,4.42,6.49l0.27,0.16l-0.28,0.11c-3.47,1.38-5.22,3.41-5.22,6.06&#xA;&#x9;&#x9;&#x9;&#x9;c0,4.31,4.08,6.77,11.23,6.77c6.03,0,10.57-3.57,10.57-8.31C159.67,343.86,157.67,341.47,153.57,339.7z M148.4,329.23&#xA;&#x9;&#x9;&#x9;&#x9;c3.11,0,5.11,1.79,5.11,4.56c0,1.94-0.6,3.45-2,5.02l-0.07,0.07l-0.11-0.04c-3.48-1.27-6.9-2.79-6.9-5.92&#xA;&#x9;&#x9;&#x9;&#x9;C144.44,330.51,146.44,329.23,148.4,329.23z M149.04,353.53c-3.5,0-5.66-2.88-5.66-5.53c0-1.77,0.58-3.22,1.87-4.6l0.07-0.09&#xA;&#x9;&#x9;&#x9;&#x9;l0.11,0.05c0.41,0.18,0.9,0.35,1.43,0.49c5.04,1.68,6.82,3.11,6.82,5.5C153.69,351.88,151.87,353.53,149.04,353.53z"></path>
&#x9;&#x9;</g>
&#x9;&#x9;<g>
&#x9;&#x9;&#x9;<path class="st1" d="M153.51,333.8c0,1.94-0.6,3.45-2,5.02l-0.07,0.07l-0.11-0.04c-3.48-1.27-6.9-2.79-6.9-5.92&#xA;&#x9;&#x9;&#x9;&#x9;c0-2.42,2-3.7,3.96-3.7C151.52,329.23,153.51,331.02,153.51,333.8z"></path>
&#x9;&#x9;</g>
&#x9;&#x9;<g>
&#x9;&#x9;&#x9;<path class="st1" d="M153.69,349.35c0,2.53-1.82,4.17-4.65,4.17c-3.5,0-5.66-2.88-5.66-5.53c0-1.77,0.58-3.22,1.87-4.6l0.07-0.09&#xA;&#x9;&#x9;&#x9;&#x9;l0.11,0.05c0.41,0.18,0.9,0.35,1.43,0.49C151.91,345.53,153.69,346.97,153.69,349.35z"></path>
&#x9;&#x9;</g>
&#x9;&#x9;<g>
&#x9;&#x9;&#x9;<path class="st0" d="M188.61,346.49c0,4.21-3.29,8.73-10.54,8.73c-6.56,0-10.48-2.26-10.48-6.08c0-2.19,1.52-3.66,3.78-3.66&#xA;&#x9;&#x9;&#x9;&#x9;c2.33,0,3.39,1.79,3.39,3.54c0,1.47-0.99,2.74-1.98,3.24l-0.21,0.11l0.19,0.16c0.6,0.46,2.46,0.92,3.73,0.92&#xA;&#x9;&#x9;&#x9;&#x9;c3.68,0,5.53-2.21,5.53-6.56c0-3.91-2.03-6.15-5.57-6.15c-2.35,0-3.94,0.6-5.85,1.64l-1.31-1.04l0.55-13.19h17.47l-0.41,5.37&#xA;&#x9;&#x9;&#x9;&#x9;h-14.59l-0.3,6.21l-0.02,0.27l0.23-0.11c1.98-0.9,3.85-1.27,6.28-1.27C183.39,338.6,188.61,340.67,188.61,346.49z"></path>
&#x9;&#x9;</g>
&#x9;&#x9;<g>
&#x9;&#x9;&#x9;<g>
&#x9;&#x9;&#x9;&#x9;<path d="M253.97,367.29c0,3.42-2.68,6.11-6.18,6.11c-3.46,0-6.22-2.68-6.22-6.11c0-3.35,2.76-6.03,6.22-6.03&#xA;&#x9;&#x9;&#x9;&#x9;&#x9;C251.28,361.26,253.97,363.95,253.97,367.29z M243.12,367.29c0,2.69,1.99,4.82,4.71,4.82c2.65,0,4.6-2.13,4.6-4.78&#xA;&#x9;&#x9;&#x9;&#x9;&#x9;c0-2.69-1.95-4.85-4.63-4.85C245.1,362.48,243.12,364.64,243.12,367.29z M246.83,370.46h-1.4v-6.03&#xA;&#x9;&#x9;&#x9;&#x9;&#x9;c0.55-0.11,1.32-0.19,2.32-0.19c1.14,0,1.65,0.19,2.1,0.44c0.33,0.25,0.59,0.73,0.59,1.32c0,0.66-0.52,1.18-1.25,1.4v0.07&#xA;&#x9;&#x9;&#x9;&#x9;&#x9;c0.59,0.22,0.92,0.66,1.1,1.47c0.18,0.92,0.29,1.29,0.44,1.51h-1.51c-0.18-0.22-0.29-0.77-0.48-1.47&#xA;&#x9;&#x9;&#x9;&#x9;&#x9;c-0.11-0.66-0.48-0.96-1.25-0.96h-0.66V370.46z M246.87,367.04h0.66c0.77,0,1.4-0.26,1.4-0.88c0-0.55-0.41-0.92-1.29-0.92&#xA;&#x9;&#x9;&#x9;&#x9;&#x9;c-0.37,0-0.63,0.04-0.77,0.07V367.04z"></path>
&#x9;&#x9;&#x9;</g>
&#x9;&#x9;</g>
&#x9;</g>
&#x9;<g>
&#x9;&#x9;<path d="M356.27,86.91c0-22.45,16.67-39,38.45-39c7,0,13.89,2.22,18.45,4.78l3.22-4.78h4.44v26.33h-5&#xA;&#x9;&#x9;&#x9;c-4.44-13.45-11.78-21.56-21.45-21.56c-11.33,0-21.33,11-21.33,32.45c0,22,12.11,32.56,23.78,32.56c10.33,0,17.56-6,22.78-16.56&#xA;&#x9;&#x9;&#x9;l4.22,2c-5.11,11.89-15.11,21.44-31,21.44C369.72,124.58,356.27,108.8,356.27,86.91z"></path>
&#x9;&#x9;<path d="M431.83,97.24c0-16.11,10.22-26.78,26.33-26.78c16.56,0,26.11,10.22,26.11,26.33c0,16.22-10.11,27.11-26.11,27.11&#xA;&#x9;&#x9;&#x9;C441.38,123.91,431.83,113.46,431.83,97.24z M470.05,97.02c0-15.33-4.22-22.22-12.44-22.22c-8.11,0-11.56,6.89-11.56,22.22&#xA;&#x9;&#x9;&#x9;c0,15.44,4.33,22.45,12.56,22.45C466.61,119.47,470.05,112.46,470.05,97.02z"></path>
&#x9;&#x9;<path d="M491.05,118.8c6.33-0.11,7.78-1.22,7.78-3.89V55.68c0-3.33-1.67-5.33-8.22-5.44v-4l21.45-0.89v69.56&#xA;&#x9;&#x9;&#x9;c0,2.67,1.33,3.78,7.78,3.89v4h-28.78V118.8z"></path>
&#x9;&#x9;<path d="M524.93,118.8c6.33-0.11,7.78-1.22,7.78-3.89V55.68c0-3.33-1.67-5.33-8.22-5.44v-4l21.45-0.89v69.56&#xA;&#x9;&#x9;&#x9;c0,2.67,1.33,3.78,7.78,3.89v4h-28.78V118.8z"></path>
&#x9;&#x9;<path d="M559.82,97.8c0-16.44,10.22-27.33,25.56-27.33c15.44,0,22.89,12.22,22,26.11h-33.56v0.44v0.22&#xA;&#x9;&#x9;&#x9;c0,11.89,5.33,20.11,15.78,20.11c5.89,0,10.89-3.56,15.22-9.11l2.78,2.33c-4.67,7.56-11.11,13.33-22.22,13.33&#xA;&#x9;&#x9;&#x9;C568.93,123.91,559.82,113.69,559.82,97.8z M573.93,92.58l19.78-0.33c1.11-9.56-2-17.45-9.11-17.45&#xA;&#x9;&#x9;&#x9;C578.49,74.8,574.71,80.69,573.93,92.58z"></path>
&#x9;&#x9;<path d="M648.6,72.57c2.56-5,5.89-9.45,11.67-9.45c4.33,0,6.78,2.56,6.78,5.89c0,2.78-2,5.22-5.11,5.22&#xA;&#x9;&#x9;&#x9;c-2.56,0-4.89-1.89-4.89-5.56c-2.22,0.78-4.22,2.89-5.33,5.33c5.11,2.78,8.33,7.44,8.33,13.78c0,10.78-9,17.45-21.45,17.45&#xA;&#x9;&#x9;&#x9;c-2.11,0-4.11-0.22-6.11-0.56c-4.11,1.56-6.22,3-6.22,5c0,2.22,2.22,4,12,4h5c14.89,0,21.67,4.11,21.67,13.78&#xA;&#x9;&#x9;&#x9;c0,9.44-10.22,18.11-28,18.11c-13.78,0-23-5.11-23-11.78c0-4.89,4.44-9.11,13-10.33v-0.56c-6.89-2.11-9.11-5.11-9.11-9.45&#xA;&#x9;&#x9;&#x9;c0-4.11,3.11-7.33,9.33-10.22c-6.11-2.55-10.22-7.44-10.22-15c0-10.67,9.11-17.33,21.67-17.33&#xA;&#x9;&#x9;&#x9;C642.15,70.91,645.6,71.46,648.6,72.57z M655.6,131.8c0-4.22-2.89-6.67-16.11-6.67h-9.22c-4.67,1.33-7.45,3.56-7.45,7.45&#xA;&#x9;&#x9;&#x9;c0,4.89,5.45,8.89,17,8.89C649.37,141.47,655.6,137.47,655.6,131.8z M647.15,88.02c0-8.22-3.33-13-9.11-13&#xA;&#x9;&#x9;&#x9;c-5.56,0-8.11,3.67-8.11,13c0,9.45,3.45,13.11,9.11,13.11C644.49,101.13,647.15,97.46,647.15,88.02z"></path>
&#x9;&#x9;<path d="M671.37,97.8c0-16.44,10.22-27.33,25.56-27.33c15.44,0,22.89,12.22,22,26.11h-33.56v0.44v0.22&#xA;&#x9;&#x9;&#x9;c0,11.89,5.33,20.11,15.78,20.11c5.89,0,10.89-3.56,15.22-9.11l2.78,2.33c-4.67,7.56-11.11,13.33-22.22,13.33&#xA;&#x9;&#x9;&#x9;C680.48,123.91,671.37,113.69,671.37,97.8z M685.48,92.58l19.78-0.33c1.11-9.56-2-17.45-9.11-17.45&#xA;&#x9;&#x9;&#x9;C690.04,74.8,686.26,80.69,685.48,92.58z"></path>
&#x9;&#x9;<path d="M748.81,97.24c0-16.11,10.22-26.78,26.33-26.78c16.56,0,26.11,10.22,26.11,26.33c0,16.22-10.11,27.11-26.11,27.11&#xA;&#x9;&#x9;&#x9;C758.37,123.91,748.81,113.46,748.81,97.24z M787.03,97.02c0-15.33-4.22-22.22-12.44-22.22c-8.11,0-11.56,6.89-11.56,22.22&#xA;&#x9;&#x9;&#x9;c0,15.44,4.33,22.45,12.56,22.45C783.59,119.47,787.03,112.46,787.03,97.02z"></path>
&#x9;&#x9;<path d="M808.92,118.8c6.33-0.11,7.78-1.22,7.78-3.89V78.02h-9.56V73.8l9.56-2v-2.44c0-8.78,2.11-14.89,6.11-19&#xA;&#x9;&#x9;&#x9;c3.89-3.89,9.11-5.67,15.56-5.67c10.33,0,15.22,4.56,15.22,9.67c0,4.22-2.56,7.22-6.89,7.22c-3.89,0-7.22-2.45-7.22-8&#xA;&#x9;&#x9;&#x9;c0-1.11,0.33-3,0.67-4.22c-1-0.45-1.89-0.67-2.78-0.67c-1.67,0-3,0.44-4.33,1.78c-2,2-3.11,5.89-3.11,13.89v7.67h14v5.78h-14&#xA;&#x9;&#x9;&#x9;v37.11c0,2.67,2.11,3.56,10.78,3.89v4h-31.78V118.8z"></path>
&#x9;&#x9;<path d="M912.25,96.02h-23.56l-3.78,10c-3.78,9.67-2.78,11.11,6.33,12.67v4.11H865.8v-4.11c7.22-1.67,9.33-5,13-14.44l21.89-55.67&#xA;&#x9;&#x9;&#x9;h10l22.22,61.89c1.78,5,3.78,6.89,11.67,8.22v4.11h-37.22v-4.11c10-0.56,11.78-2.67,9.89-8.11L912.25,96.02z M910.69,91.35&#xA;&#x9;&#x9;&#x9;l-9.22-27.45h-0.78l-10.33,27.45H910.69z"></path>
&#x9;&#x9;<path d="M979.91,72.57c2.56-5,5.89-9.45,11.67-9.45c4.33,0,6.78,2.56,6.78,5.89c0,2.78-2,5.22-5.11,5.22&#xA;&#x9;&#x9;&#x9;c-2.56,0-4.89-1.89-4.89-5.56c-2.22,0.78-4.22,2.89-5.33,5.33c5.11,2.78,8.33,7.44,8.33,13.78c0,10.78-9,17.45-21.45,17.45&#xA;&#x9;&#x9;&#x9;c-2.11,0-4.11-0.22-6.11-0.56c-4.11,1.56-6.22,3-6.22,5c0,2.22,2.22,4,12,4h5c14.89,0,21.67,4.11,21.67,13.78&#xA;&#x9;&#x9;&#x9;c0,9.44-10.22,18.11-28,18.11c-13.78,0-23-5.11-23-11.78c0-4.89,4.44-9.11,13-10.33v-0.56c-6.89-2.11-9.11-5.11-9.11-9.45&#xA;&#x9;&#x9;&#x9;c0-4.11,3.11-7.33,9.33-10.22c-6.11-2.55-10.22-7.44-10.22-15c0-10.67,9.11-17.33,21.67-17.33&#xA;&#x9;&#x9;&#x9;C973.47,70.91,976.91,71.46,979.91,72.57z M986.91,131.8c0-4.22-2.89-6.67-16.11-6.67h-9.22c-4.67,1.33-7.45,3.56-7.45,7.45&#xA;&#x9;&#x9;&#x9;c0,4.89,5.45,8.89,17,8.89C980.69,141.47,986.91,137.47,986.91,131.8z M978.47,88.02c0-8.22-3.33-13-9.11-13&#xA;&#x9;&#x9;&#x9;c-5.56,0-8.11,3.67-8.11,13c0,9.45,3.45,13.11,9.11,13.11C975.8,101.13,978.47,97.46,978.47,88.02z"></path>
&#x9;&#x9;<path d="M1001.02,118.8c6.33-0.11,7.78-1.22,7.78-3.89V81.57c0-3.33-1.44-5.33-7.78-5.44v-4l20.78-0.89v9&#xA;&#x9;&#x9;&#x9;c3.89-5,9.11-9.33,15-9.33c6.33,0,9.44,4.11,9.44,8.89c0,4.67-3,8.11-7.22,8.11c-4.56,0-7.56-2.56-7.56-6.67&#xA;&#x9;&#x9;&#x9;c0-0.56,0.11-1.44,0.22-2.11c-3.89-0.11-7.56,2.67-9.67,5.33v30.45c0,2.67,1.89,3.67,9.78,3.89v4h-30.78V118.8z"></path>
&#x9;&#x9;<path d="M1050.46,118.8c6.33-0.11,8-1.22,8-3.89V81.57c0-3.33-1.56-5.33-8-5.44v-4l21.22-0.89v43.67c0,2.67,1.33,3.78,7.78,3.89v4&#xA;&#x9;&#x9;&#x9;h-29V118.8z M1056.8,53.13c0-5,3.22-8.44,8.11-8.44c4.89,0,8.11,3.22,8.11,8.11c0,5-3.22,8.33-8.11,8.33&#xA;&#x9;&#x9;&#x9;C1060.02,61.13,1056.8,58.13,1056.8,53.13z"></path>
&#x9;&#x9;<path d="M1085.79,97.8c0-16.56,11.33-27.33,26.45-27.33c14,0,19.44,7.11,19.44,12.78c0,4.56-2.67,7.89-7.11,7.89&#xA;&#x9;&#x9;&#x9;c-5,0-7.56-2.89-7.56-6.78c0-2.78,1.89-5.33,3.33-6.22c-1.11-1.78-4-3.44-7.67-3.44c-7.67,0-12.89,6.89-12.89,21.33&#xA;&#x9;&#x9;&#x9;c0,12.33,5.44,20.78,16.22,20.78c5.67,0,10.45-3,14.22-7.67l2.78,2.33c-4.89,7.45-11.33,12.45-21.78,12.45&#xA;&#x9;&#x9;&#x9;C1095.46,123.91,1085.79,113.46,1085.79,97.8z"></path>
&#x9;&#x9;<path d="M1145.13,107.58V80.69c0-3.44-1.44-4.78-7.89-5v-4l21.11-0.44v32.89c0,7.67,3,10.67,9.22,10.67c4.22,0,6.78-1.22,9.89-3&#xA;&#x9;&#x9;&#x9;V80.69c0-3.44-1.78-4.67-7.89-4.89v-4l21.11-0.55v43.45c0,3,1.56,3.89,7.89,4.11v4h-20.89v-7.33c-5.22,4.67-11.11,8.22-18.22,8.22&#xA;&#x9;&#x9;&#x9;C1150.57,123.69,1145.13,117.91,1145.13,107.58z"></path>
&#x9;&#x9;<path d="M1203.34,118.8c6.33-0.11,7.78-1.22,7.78-3.89V55.68c0-3.33-1.67-5.33-8.22-5.44v-4l21.45-0.89v69.56&#xA;&#x9;&#x9;&#x9;c0,2.67,1.33,3.78,7.78,3.89v4h-28.78V118.8z"></path>
&#x9;&#x9;<path d="M1245.56,108.69v-31h-9.56v-4.22l9.78-2V57.57l13-4.33v18.45h16.33v5.78h-16.33v30.56c0,5.56,2.22,8.44,6.44,8.44&#xA;&#x9;&#x9;&#x9;c3.11,0,5.89-2.55,8.33-6.67l3.22,2.11c-3.89,7.89-9,11.78-17,11.78C1251.45,123.69,1245.56,119.35,1245.56,108.69z"></path>
&#x9;&#x9;<path d="M1287.23,107.58V80.69c0-3.44-1.44-4.78-7.89-5v-4l21.11-0.44v32.89c0,7.67,3,10.67,9.22,10.67c4.22,0,6.78-1.22,9.89-3&#xA;&#x9;&#x9;&#x9;V80.69c0-3.44-1.78-4.67-7.89-4.89v-4l21.11-0.55v43.45c0,3,1.56,3.89,7.89,4.11v4h-20.89v-7.33c-5.22,4.67-11.11,8.22-18.22,8.22&#xA;&#x9;&#x9;&#x9;C1292.67,123.69,1287.23,117.91,1287.23,107.58z"></path>
&#x9;&#x9;<path d="M1346.23,118.8c6.33-0.11,7.78-1.22,7.78-3.89V81.57c0-3.33-1.44-5.33-7.78-5.44v-4l20.78-0.89v9&#xA;&#x9;&#x9;&#x9;c3.89-5,9.11-9.33,15-9.33c6.33,0,9.44,4.11,9.44,8.89c0,4.67-3,8.11-7.22,8.11c-4.56,0-7.56-2.56-7.56-6.67&#xA;&#x9;&#x9;&#x9;c0-0.56,0.11-1.44,0.22-2.11c-3.89-0.11-7.56,2.67-9.67,5.33v30.45c0,2.67,1.89,3.67,9.78,3.89v4h-30.78V118.8z"></path>
&#x9;&#x9;<path d="M1396.67,111.02c0-4.44,2.33-9.33,7-11.89c8.11-4.45,20.89-5.11,24-6.45v-5c0-9.56-3-12.44-9.33-12.44&#xA;&#x9;&#x9;&#x9;c-2.56,0-4.44,0.67-5.89,1.78c0.78,1.67,1.45,3.44,1.45,5.44c0,4.11-2.89,7.22-7.67,7.22c-4.67,0-7.22-3-7.22-7.11&#xA;&#x9;&#x9;&#x9;c0-6.67,8.78-11.67,22.45-11.67c13.11,0,19.22,6,19.22,17.89v22.78c0,5.44,1.22,6.56,7.89,5.44l1,3.11&#xA;&#x9;&#x9;&#x9;c-4.11,2.22-7.56,3.44-11.67,3.44c-6.78,0-8.22-2.55-9.56-7.89h-0.44c-4.44,4.67-10.22,8.11-16.67,8.11&#xA;&#x9;&#x9;&#x9;C1401,123.8,1396.67,117.24,1396.67,111.02z M1427.67,111.13V96.8c-12.89,2.11-16.78,4.56-16.78,11.33c0,4.89,2.67,8.33,7.67,8.33&#xA;&#x9;&#x9;&#x9;C1422.33,116.46,1425.67,113.91,1427.67,111.13z"></path>
&#x9;&#x9;<path d="M1451.66,118.8c6.33-0.11,7.78-1.22,7.78-3.89V55.68c0-3.33-1.67-5.33-8.22-5.44v-4l21.45-0.89v69.56&#xA;&#x9;&#x9;&#x9;c0,2.67,1.33,3.78,7.78,3.89v4h-28.78V118.8z"></path>
&#x9;&#x9;<path d="M1574.77,83.02c6,0,9.22,4,9.22,8.45c0,4-2.89,7.22-7.11,7.22c-3.89,0-6.89-3.11-6.89-6.56c0-0.67,0.11-1.22,0.44-1.78&#xA;&#x9;&#x9;&#x9;L1570,89.8c-3.44,2.11-6.89,6.89-10,13c5.44,10.11,9.11,13.78,13.33,13.78c3.33,0,4.89-0.89,8.22-3.67l2.44,3.33&#xA;&#x9;&#x9;&#x9;c-6.67,6-11.44,8.33-16.44,8.33c-8.67,0-12.22-3.55-16.22-10.56c-5.11,6.33-11.67,10.56-20,10.56c-15.45,0-21.89-8.89-21.89-17.56&#xA;&#x9;&#x9;&#x9;c0-9.78,7.22-16.33,19.11-20.11c-5.22-6-8.33-10-8.33-16.11c0-10.56,9.11-18,21-18c11.67,0,17.89,6.78,17.89,14&#xA;&#x9;&#x9;&#x9;c0,7.11-4.78,11.89-15.56,16.56c5.44,4.78,10.33,10.11,13.89,15.78C1562.44,89.35,1568.22,83.02,1574.77,83.02z M1523.44,103.35&#xA;&#x9;&#x9;&#x9;c0,8.22,5.33,13.67,13.11,13.67c5,0,8.67-2.22,12.67-6.56c-4.44-7.22-10.67-14.78-17.78-21&#xA;&#x9;&#x9;&#x9;C1525.88,93.13,1523.44,97.35,1523.44,103.35z M1548.33,66.91c0-6-2.89-9.78-8.45-9.78c-4.11,0-7.78,3.67-7.78,9.33&#xA;&#x9;&#x9;&#x9;c0,4.89,2.89,8.89,8.56,14.33C1546.55,76.46,1548.33,72.57,1548.33,66.91z"></path>
&#x9;</g>
&#x9;<g>
&#x9;&#x9;<path d="M355.72,234.03c8.78-0.33,10.44-1.33,10.44-4.78v-55c0-3.44-1.67-4.44-10.44-4.78v-4.22h62.11l0.67,23.33l-4.67,0.11&#xA;&#x9;&#x9;&#x9;c-4.11-12.45-7.22-18.78-20.22-18.78H381.5v28.67h4.11c7.67,0,10.44-0.89,13.78-11.67h4v28.22h-4&#xA;&#x9;&#x9;&#x9;c-3.33-10.78-6.11-11.78-13.78-11.78h-4.11v30.11h11.56c15.44,0,19.44-7.22,23.89-20.78l4.78,0.11l-0.89,25.56h-65.11V234.03z"></path>
&#x9;&#x9;<path d="M430.38,234.36c6.33-0.11,7.78-1.22,7.78-3.89v-33.33c0-3.33-1.44-5.33-7.78-5.44v-4l20.78-0.89v8.22&#xA;&#x9;&#x9;&#x9;c5.67-4.44,12.44-8.56,19.67-8.56c8.78,0,13.11,5.67,13.11,16v28c0,2.67,1.33,3.78,7.78,3.89v4h-27.33v-4&#xA;&#x9;&#x9;&#x9;c4.78-0.11,6.33-1.22,6.33-3.89v-24.67c0-7.67-2.67-10.67-8.56-10.67c-4.22,0-7.78,1.78-10.78,3.67v31.67&#xA;&#x9;&#x9;&#x9;c0,2.67,1.56,3.78,6.22,3.89v4h-27.22V234.36z"></path>
&#x9;&#x9;<path d="M499.71,197.81c-2-4.78-3.44-6.11-8.67-6.89v-3.89h28.56v3.89c-4.89,0.45-6.89,1.45-6.89,3.56c0,0.56,0.11,1.11,0.44,2&#xA;&#x9;&#x9;&#x9;l11.33,29.56h0.44l9.33-24.11c1-2.67,1.44-4.45,1.44-5.89c0-2.78-1.78-4.44-6.56-5.11v-3.89h21v3.89&#xA;&#x9;&#x9;&#x9;c-3.44,0.45-6.33,2.78-8.33,7.67l-16.89,40.45h-8.67L499.71,197.81z"></path>
&#x9;&#x9;<path d="M552.38,234.36c6.33-0.11,8-1.22,8-3.89v-33.33c0-3.33-1.56-5.33-8-5.44v-4l21.22-0.89v43.67c0,2.67,1.33,3.78,7.78,3.89&#xA;&#x9;&#x9;&#x9;v4h-29V234.36z M558.71,168.69c0-5,3.22-8.44,8.11-8.44s8.11,3.22,8.11,8.11c0,5-3.22,8.33-8.11,8.33S558.71,173.69,558.71,168.69&#xA;&#x9;&#x9;&#x9;z"></path>
&#x9;&#x9;<path d="M587.49,234.36c6.33-0.11,7.78-1.22,7.78-3.89v-33.33c0-3.33-1.44-5.33-7.78-5.44v-4l20.78-0.89v9&#xA;&#x9;&#x9;&#x9;c3.89-5,9.11-9.33,15-9.33c6.33,0,9.44,4.11,9.44,8.89c0,4.67-3,8.11-7.22,8.11c-4.56,0-7.56-2.56-7.56-6.67&#xA;&#x9;&#x9;&#x9;c0-0.56,0.11-1.44,0.22-2.11c-3.89-0.11-7.56,2.67-9.67,5.33v30.45c0,2.67,1.89,3.67,9.78,3.89v4h-30.78V234.36z"></path>
&#x9;&#x9;<path d="M637.37,212.81c0-16.11,10.22-26.78,26.33-26.78c16.56,0,26.11,10.22,26.11,26.33c0,16.22-10.11,27.11-26.11,27.11&#xA;&#x9;&#x9;&#x9;C646.93,239.47,637.37,229.03,637.37,212.81z M675.6,212.58c0-15.33-4.22-22.22-12.45-22.22c-8.11,0-11.56,6.89-11.56,22.22&#xA;&#x9;&#x9;&#x9;c0,15.44,4.33,22.45,12.56,22.45C672.15,235.03,675.6,228.03,675.6,212.58z"></path>
&#x9;&#x9;<path d="M697.37,234.36c6.33-0.11,7.78-1.22,7.78-3.89v-33.33c0-3.33-1.44-5.33-7.78-5.44v-4l20.78-0.89v8.22&#xA;&#x9;&#x9;&#x9;c5.67-4.44,12.45-8.56,19.67-8.56c8.78,0,13.11,5.67,13.11,16v28c0,2.67,1.33,3.78,7.78,3.89v4h-27.33v-4&#xA;&#x9;&#x9;&#x9;c4.78-0.11,6.33-1.22,6.33-3.89v-24.67c0-7.67-2.67-10.67-8.56-10.67c-4.22,0-7.78,1.78-10.78,3.67v31.67&#xA;&#x9;&#x9;&#x9;c0,2.67,1.56,3.78,6.22,3.89v4h-27.22V234.36z"></path>
&#x9;&#x9;<path d="M797.81,234.36c4.78-0.11,5.67-1.22,5.67-3.89v-24.67c0-7.67-2.89-10.67-8.78-10.67c-4.11,0-6.78,1.78-9.78,3.67v31.67&#xA;&#x9;&#x9;&#x9;c0,2.67,0.89,3.78,5.67,3.89v4h-26.67v-4c6.33-0.11,7.78-1.22,7.78-3.89v-33.33c0-3.33-1.44-5.33-7.78-5.44v-4l20.78-0.89v8.22&#xA;&#x9;&#x9;&#x9;c5.67-4.44,11.56-8.56,18.78-8.56c6.78,0,10.89,3.56,12.44,9.89c5.78-5.45,12.56-9.89,19.56-9.89c8.78,0,13.11,5.67,13.11,16v28&#xA;&#x9;&#x9;&#x9;c0,2.67,1.33,3.78,7.78,3.89v4h-26.78v-4c4.78-0.11,5.78-1.22,5.78-3.89v-24.67c0-7.67-2.44-10.67-8.33-10.67&#xA;&#x9;&#x9;&#x9;c-3.11,0-6.78,2-10.44,4.67c0.11,1.44,0.11,2.22,0.11,3v27.67c0,2.67,1.11,3.78,6.22,3.89v4h-25.11V234.36z"></path>
&#x9;&#x9;<path d="M861.81,213.36c0-16.44,10.22-27.33,25.56-27.33c15.44,0,22.89,12.22,22,26.11h-33.56v0.44v0.22&#xA;&#x9;&#x9;&#x9;c0,11.89,5.33,20.11,15.78,20.11c5.89,0,10.89-3.56,15.22-9.11l2.78,2.33c-4.67,7.56-11.11,13.33-22.22,13.33&#xA;&#x9;&#x9;&#x9;C870.92,239.47,861.81,229.25,861.81,213.36z M875.92,208.14l19.78-0.33c1.11-9.56-2-17.45-9.11-17.45&#xA;&#x9;&#x9;&#x9;C880.47,190.36,876.7,196.25,875.92,208.14z"></path>
&#x9;&#x9;<path d="M917.14,234.36c6.33-0.11,7.78-1.22,7.78-3.89v-33.33c0-3.33-1.44-5.33-7.78-5.44v-4l20.78-0.89v8.22&#xA;&#x9;&#x9;&#x9;c5.67-4.44,12.44-8.56,19.67-8.56c8.78,0,13.11,5.67,13.11,16v28c0,2.67,1.33,3.78,7.78,3.89v4h-27.33v-4&#xA;&#x9;&#x9;&#x9;c4.78-0.11,6.33-1.22,6.33-3.89v-24.67c0-7.67-2.67-10.67-8.56-10.67c-4.22,0-7.78,1.78-10.78,3.67v31.67&#xA;&#x9;&#x9;&#x9;c0,2.67,1.56,3.78,6.22,3.89v4h-27.22V234.36z"></path>
&#x9;&#x9;<path d="M991.25,224.25v-31h-9.56v-4.22l9.78-2v-13.89l13-4.33v18.45h16.33v5.78h-16.33v30.56c0,5.56,2.22,8.44,6.44,8.44&#xA;&#x9;&#x9;&#x9;c3.11,0,5.89-2.55,8.33-6.67l3.22,2.11c-3.89,7.89-9,11.78-17,11.78C997.14,239.25,991.25,234.92,991.25,224.25z"></path>
&#x9;&#x9;<path d="M1027.47,226.58c0-4.44,2.33-9.33,7-11.89c8.11-4.45,20.89-5.11,24-6.45v-5c0-9.56-3-12.44-9.33-12.44&#xA;&#x9;&#x9;&#x9;c-2.56,0-4.44,0.67-5.89,1.78c0.78,1.67,1.45,3.44,1.45,5.44c0,4.11-2.89,7.22-7.67,7.22c-4.67,0-7.22-3-7.22-7.11&#xA;&#x9;&#x9;&#x9;c0-6.67,8.78-11.67,22.45-11.67c13.11,0,19.22,6,19.22,17.89v22.78c0,5.44,1.22,6.56,7.89,5.44l1,3.11&#xA;&#x9;&#x9;&#x9;c-4.11,2.22-7.56,3.44-11.67,3.44c-6.78,0-8.22-2.55-9.56-7.89h-0.44c-4.44,4.67-10.22,8.11-16.67,8.11&#xA;&#x9;&#x9;&#x9;C1031.8,239.36,1027.47,232.81,1027.47,226.58z M1058.47,226.7v-14.33c-12.89,2.11-16.78,4.56-16.78,11.33&#xA;&#x9;&#x9;&#x9;c0,4.89,2.67,8.33,7.67,8.33C1053.14,232.03,1056.47,229.47,1058.47,226.7z"></path>
&#x9;&#x9;<path d="M1082.46,234.36c6.33-0.11,7.78-1.22,7.78-3.89v-59.22c0-3.33-1.67-5.33-8.22-5.44v-4l21.45-0.89v69.56&#xA;&#x9;&#x9;&#x9;c0,2.67,1.33,3.78,7.78,3.89v4h-28.78V234.36z"></path>
&#x9;&#x9;<path d="M1140.68,215.47h4.78c5.67,12.56,13.22,19.89,22.45,19.89c9.67,0,13.67-6.56,13.67-12.45c0-7.67-4.89-10.56-17.67-14.78&#xA;&#x9;&#x9;&#x9;c-11.22-3.56-22.33-7.89-22.33-21.56c0-14,10.56-23.11,25.45-23.11c5.89,0,11.22,1.45,14.67,3l3.33-3.56h4v22.22h-4.67&#xA;&#x9;&#x9;&#x9;c-4.44-10.45-10.78-16.89-18.89-16.89c-6.78,0-11.78,4.44-11.78,11.67c0,7.56,5.44,10,17.67,13.89&#xA;&#x9;&#x9;&#x9;c10.22,3.33,21.11,7.67,21.11,21.45c0,12.33-7.33,24.89-26.11,24.89c-6,0-12.89-1.22-17.22-3.33l-4.22,3.78h-4.22V215.47z"></path>
&#x9;&#x9;<path d="M1200.9,213.36c0-16.56,11.33-27.33,26.45-27.33c14,0,19.44,7.11,19.44,12.78c0,4.56-2.67,7.89-7.11,7.89&#xA;&#x9;&#x9;&#x9;c-5,0-7.56-2.89-7.56-6.78c0-2.78,1.89-5.33,3.33-6.22c-1.11-1.78-4-3.44-7.67-3.44c-7.67,0-12.89,6.89-12.89,21.33&#xA;&#x9;&#x9;&#x9;c0,12.33,5.44,20.78,16.22,20.78c5.67,0,10.45-3,14.22-7.67l2.78,2.33c-4.89,7.45-11.33,12.45-21.78,12.45&#xA;&#x9;&#x9;&#x9;C1210.57,239.47,1200.9,229.03,1200.9,213.36z"></path>
&#x9;&#x9;<path d="M1253.79,234.36c6.33-0.11,8-1.22,8-3.89v-33.33c0-3.33-1.56-5.33-8-5.44v-4l21.22-0.89v43.67c0,2.67,1.33,3.78,7.78,3.89&#xA;&#x9;&#x9;&#x9;v4h-29V234.36z M1260.12,168.69c0-5,3.22-8.44,8.11-8.44s8.11,3.22,8.11,8.11c0,5-3.22,8.33-8.11,8.33&#xA;&#x9;&#x9;&#x9;S1260.12,173.69,1260.12,168.69z"></path>
&#x9;&#x9;<path d="M1289.12,213.36c0-16.44,10.22-27.33,25.56-27.33c15.44,0,22.89,12.22,22,26.11h-33.56v0.44v0.22&#xA;&#x9;&#x9;&#x9;c0,11.89,5.33,20.11,15.78,20.11c5.89,0,10.89-3.56,15.22-9.11l2.78,2.33c-4.67,7.56-11.11,13.33-22.22,13.33&#xA;&#x9;&#x9;&#x9;C1298.23,239.47,1289.12,229.25,1289.12,213.36z M1303.23,208.14l19.78-0.33c1.11-9.56-2-17.45-9.11-17.45&#xA;&#x9;&#x9;&#x9;C1307.79,190.36,1304.01,196.25,1303.23,208.14z"></path>
&#x9;&#x9;<path d="M1344.45,234.36c6.33-0.11,7.78-1.22,7.78-3.89v-33.33c0-3.33-1.44-5.33-7.78-5.44v-4l20.78-0.89v8.22&#xA;&#x9;&#x9;&#x9;c5.67-4.44,12.44-8.56,19.67-8.56c8.78,0,13.11,5.67,13.11,16v28c0,2.67,1.33,3.78,7.78,3.89v4h-27.33v-4&#xA;&#x9;&#x9;&#x9;c4.78-0.11,6.33-1.22,6.33-3.89v-24.67c0-7.67-2.67-10.67-8.56-10.67c-4.22,0-7.78,1.78-10.78,3.67v31.67&#xA;&#x9;&#x9;&#x9;c0,2.67,1.56,3.78,6.22,3.89v4h-27.22V234.36z"></path>
&#x9;&#x9;<path d="M1411.23,213.36c0-16.56,11.33-27.33,26.45-27.33c14,0,19.44,7.11,19.44,12.78c0,4.56-2.67,7.89-7.11,7.89&#xA;&#x9;&#x9;&#x9;c-5,0-7.56-2.89-7.56-6.78c0-2.78,1.89-5.33,3.33-6.22c-1.11-1.78-4-3.44-7.67-3.44c-7.67,0-12.89,6.89-12.89,21.33&#xA;&#x9;&#x9;&#x9;c0,12.33,5.44,20.78,16.22,20.78c5.67,0,10.45-3,14.22-7.67l2.78,2.33c-4.89,7.45-11.33,12.45-21.78,12.45&#xA;&#x9;&#x9;&#x9;C1420.89,239.47,1411.23,229.03,1411.23,213.36z"></path>
&#x9;&#x9;<path d="M1464.56,213.36c0-16.44,10.22-27.33,25.56-27.33c15.45,0,22.89,12.22,22,26.11h-33.56v0.44v0.22&#xA;&#x9;&#x9;&#x9;c0,11.89,5.33,20.11,15.78,20.11c5.89,0,10.89-3.56,15.22-9.11l2.78,2.33c-4.67,7.56-11.11,13.33-22.22,13.33&#xA;&#x9;&#x9;&#x9;C1473.67,239.47,1464.56,229.25,1464.56,213.36z M1478.67,208.14l19.78-0.33c1.11-9.56-2-17.45-9.11-17.45&#xA;&#x9;&#x9;&#x9;C1483.22,190.36,1479.45,196.25,1478.67,208.14z"></path>
&#x9;&#x9;<path d="M1521.67,221.7h4.22c4.89,8.22,11.22,13,17.11,13c5.78,0,8.44-3.11,8.44-6.89c0-4.78-3.67-7-13.56-9.89&#xA;&#x9;&#x9;&#x9;c-11.56-3.33-16-7.11-16-14.78c0-10.22,8.11-17,20-17c3.78,0,8.44,1.44,10.89,3.11l2.44-3.11h4v15.67h-4.33&#xA;&#x9;&#x9;&#x9;c-4.33-6.67-8.89-11.11-14.22-11.11c-4.67,0-8,2.78-8,6.89c0,4.56,4.11,6.33,12,8.45c11.45,3,17.11,7.11,17.11,15.67&#xA;&#x9;&#x9;&#x9;c0,9.89-7.56,17.56-19.67,17.56c-4.11,0-10.11-1.67-13-3.44l-3.33,3.44h-4.11V221.7z"></path>
&#x9;</g>
&#x9;<g>
&#x9;&#x9;<g>
&#x9;&#x9;&#x9;<path class="st1" d="M1200.56,291.69h-0.06c-20.49,0-31.21,14.53-31.21,28.87c0,16.46,12.95,28.87,30.13,28.87&#xA;&#x9;&#x9;&#x9;&#x9;c17.75,0,30.64-12.43,30.64-29.56C1230.06,303.81,1217.38,291.69,1200.56,291.69z M1216.14,322.22&#xA;&#x9;&#x9;&#x9;&#x9;c0,13.72-5.91,21.78-15.06,21.78c-10.35,0-17.86-10.01-17.86-24.92c0-13.43,6.43-22.01,15.63-22.01h0.06&#xA;&#x9;&#x9;&#x9;&#x9;C1209.38,297.07,1216.14,306.45,1216.14,322.22z"></path>
&#x9;&#x9;</g>
&#x9;&#x9;<g>
&#x9;&#x9;&#x9;<path class="st1" d="M931.6,291.69h-0.06c-20.49,0-31.21,14.53-31.21,28.87c0,16.46,12.95,28.87,30.13,28.87&#xA;&#x9;&#x9;&#x9;&#x9;c17.75,0,30.64-12.43,30.64-29.56C961.1,303.81,948.42,291.69,931.6,291.69z M947.18,322.22c0,13.72-5.91,22.59-15.06,22.59&#xA;&#x9;&#x9;&#x9;&#x9;c-10.35,0-17.86-10.82-17.86-25.72c0-13.43,6.43-22.82,15.63-22.82h0.06C940.42,296.27,947.18,306.45,947.18,322.22z"></path>
&#x9;&#x9;</g>
&#x9;&#x9;<g>
&#x9;&#x9;&#x9;<path class="st1" d="M1100.91,325.27v21.06l-2.2,0.49c-5.16,1.17-11.59,2.61-17.56,2.61c-20.52,0-33.78-11.13-33.78-28.36&#xA;&#x9;&#x9;&#x9;&#x9;c0-20.19,17.49-29.39,33.74-29.39c7.34,0,17.95,2.92,17.95,2.92v13.17c0,0-5.09-10.69-17.55-10.69c-8.36,0-15.92,4.88-18.8,13.35&#xA;&#x9;&#x9;&#x9;&#x9;c-0.96,2.96-1.47,6.15-1.47,9.22c0,17.45,10.43,24.46,20.76,24.46c1.55,0,3.63-0.25,4.82-0.96c1.2-0.74,1.81-2.19,1.81-4.3&#xA;&#x9;&#x9;&#x9;&#x9;v-11.64c0-7.18-5.18-9.3-5.18-9.3h21.2C1104.66,317.91,1100.91,318.85,1100.91,325.27z"></path>
&#x9;&#x9;</g>
&#x9;&#x9;<g>
&#x9;&#x9;&#x9;<path class="st1" d="M1349.38,325.27v21.06l-2.2,0.49c-5.16,1.17-11.59,2.61-17.56,2.61c-20.52,0-33.78-11.13-33.78-28.36&#xA;&#x9;&#x9;&#x9;&#x9;c0-20.19,17.49-29.39,33.74-29.39c7.34,0,17.95,2.92,17.95,2.92v13.17c0,0-5.09-10.69-17.55-10.69c-8.36,0-15.92,4.88-18.8,13.35&#xA;&#x9;&#x9;&#x9;&#x9;c-0.96,2.96-1.47,6.15-1.47,9.22c0,17.45,10.43,24.46,20.76,24.46c1.55,0,3.63-0.25,4.82-0.96c1.2-0.74,1.81-2.19,1.81-4.3&#xA;&#x9;&#x9;&#x9;&#x9;v-11.64c0-7.18-5.18-9.3-5.18-9.3h21.2C1353.13,317.91,1349.38,318.85,1349.38,325.27z"></path>
&#x9;&#x9;</g>
&#x9;&#x9;<g>
&#x9;&#x9;&#x9;<path class="st1" d="M549.35,292.94c3.31,1.38,2.56,5.72,1.2,9.13c-0.67,1.88-8.37,20.33-11.92,28.85&#xA;&#x9;&#x9;&#x9;&#x9;c-1.33-3.67-9.99-28.02-10.44-29.33c-1.1-3.11-1.01-5.44,1.74-8.65h-22.16c4.73,2.93,6,5.73,8.72,12.81&#xA;&#x9;&#x9;&#x9;&#x9;c4.59,11.84,10.92,28.69,15.92,42.05l0.12,0.32h5.86l17.55-42.65c1.93-4.76,5.37-10.5,9.34-12.53H549.35z"></path>
&#x9;&#x9;</g>
&#x9;&#x9;<g>
&#x9;&#x9;&#x9;<path class="st1" d="M606.55,339.6c-2.81,3.18-10.23,2.97-11.29,2.97c-3.63,0-5.6-0.11-7-0.76c-1.49-0.63-1.75-2.58-1.75-6.44&#xA;&#x9;&#x9;&#x9;&#x9;v-12.03h6.79c6.13,0,10.33,0.34,11.56,3.32v-12.88c-1.17,2.96-5.18,3.49-11.56,3.49h-6.79v-17.72c0-0.62,0.5-1.11,1.11-1.11&#xA;&#x9;&#x9;&#x9;&#x9;h10.11c5.02,0,7.48,0.84,9.54,3.36c2.05,2.52,3.37,6.32,3.37,6.32v-15.18h-41.2c1.3,0.87,4.68,3.94,4.68,12.49l-0.01,29.92&#xA;&#x9;&#x9;&#x9;&#x9;c0,10.57-5.17,12.78-5.17,12.78h42.71v-16.26C611.65,331.87,609.36,336.43,606.55,339.6z"></path>
&#x9;&#x9;</g>
&#x9;&#x9;<g>
&#x9;&#x9;&#x9;<path class="st1" d="M1141.58,342.58c-3.63,0-5.6-0.11-7-0.76c-1.49-0.62-1.75-2.58-1.75-6.44v-12.03h6.79&#xA;&#x9;&#x9;&#x9;&#x9;c6.13,0,10.33,0.34,11.56,3.32v-12.88c-1.17,2.96-5.18,3.49-11.56,3.49h-6.79v-16.42c0-2.41,0-2.41,3.04-2.41h8.19&#xA;&#x9;&#x9;&#x9;&#x9;c5.02,0,7.48,0.84,9.54,3.36c2.05,2.52,3.37,6.32,3.37,6.32v-15.18h-41.6c1.3,0.87,4.68,3.94,4.68,12.49l-0.01,29.92&#xA;&#x9;&#x9;&#x9;&#x9;c0,10.57-5.17,12.78-5.17,12.78h43.11v-16.26c0,0-2.29,4.56-5.1,7.73C1150.07,342.78,1142.65,342.58,1141.58,342.58z"></path>
&#x9;&#x9;</g>
&#x9;&#x9;<g>
&#x9;&#x9;&#x9;<path class="st1" d="M1385.84,348.13c0,0-5.17-2.21-5.17-12.78l-0.01-29.92c0-8.55,3.38-11.62,4.68-12.49h-21.5&#xA;&#x9;&#x9;&#x9;&#x9;c1.3,0.87,4.68,3.94,4.68,12.49l-0.01,29.92c0,10.57-5.17,12.78-5.17,12.78H1385.84z"></path>
&#x9;&#x9;</g>
&#x9;&#x9;<g>
&#x9;&#x9;&#x9;<path class="st1" d="M470.99,348.13c0,0-5.17-2.21-5.17-12.78l-0.01-29.92c0-8.55,3.38-11.62,4.68-12.49h-15.44&#xA;&#x9;&#x9;&#x9;&#x9;c1.3,0.87,4.68,3.94,4.68,12.49l-0.01,22.42l-30.69-34.91h-13.49c1.3,0.87,4.68,3.94,4.68,12.49l-0.01,29.92&#xA;&#x9;&#x9;&#x9;&#x9;c0,10.57-5.17,12.78-5.17,12.78h16.52c0,0-5.17-2.21-5.17-12.78l-0.01-26.28l32.72,39.06H470.99z"></path>
&#x9;&#x9;</g>
&#x9;&#x9;<g>
&#x9;&#x9;&#x9;<path class="st1" d="M753.22,348.13c0,0-5.17-2.21-5.17-12.78l-0.01-29.92c0-8.55,3.38-11.62,4.68-12.49h-21.26&#xA;&#x9;&#x9;&#x9;&#x9;c1.3,0.87,4.68,3.94,4.68,12.49l-0.01,29.92c0,10.57-5.17,12.78-5.17,12.78H753.22z"></path>
&#x9;&#x9;</g>
&#x9;&#x9;<g>
&#x9;&#x9;&#x9;<path class="st1" d="M503.49,348.13c0,0-5.17-2.21-5.17-12.78l-0.01-29.92c0-8.55,3.38-11.62,4.68-12.49h-21.34&#xA;&#x9;&#x9;&#x9;&#x9;c1.3,0.87,4.68,3.94,4.68,12.49l-0.01,29.92c0,10.57-5.17,12.78-5.17,12.78H503.49z"></path>
&#x9;&#x9;</g>
&#x9;&#x9;<g>
&#x9;&#x9;&#x9;<path class="st1" d="M1449.13,348.13c-4.73-2.93-6-5.73-8.72-12.81c-4.59-11.84-10.92-28.69-15.92-42.05l-0.12-0.32h-6.67&#xA;&#x9;&#x9;&#x9;&#x9;l-17.55,42.65c-1.93,4.76-5.37,10.5-9.34,12.53h16.24c-3.31-1.38-2.56-5.72-1.2-9.13c0.24-0.66,1.16-2.96,2.41-5.99h18.11&#xA;&#x9;&#x9;&#x9;&#x9;c1.26,3.49,2.19,6.07,2.33,6.47c1.1,3.11,1.01,5.44-1.74,8.65H1449.13z M1410.84,326.77c3.33-8.07,7.1-17.1,7.1-17.1&#xA;&#x9;&#x9;&#x9;&#x9;s3.26,8.99,6.19,17.1H1410.84z"></path>
&#x9;&#x9;</g>
&#x9;&#x9;<g>
&#x9;&#x9;&#x9;<path class="st1" d="M703.55,314.13c-7.87-3.7-10.6-5.87-10.76-10.49c-0.13-3.79,2.44-7.41,8.08-7.41&#xA;&#x9;&#x9;&#x9;&#x9;c8.3,0,12.61,4.57,15.08,9.64l-0.02-11.81c-1.4-0.46-8.45-2.25-14.16-2.25c-12.01,0-20.08,7.05-20.08,16.47&#xA;&#x9;&#x9;&#x9;&#x9;c0,9.3,7.36,13.29,16.52,17.68c6.58,3.23,10.24,5.39,10.24,10.36c0,4.64-2.64,8.21-8.19,8.21c-9.1,0-15.63-8.38-17.72-13.77&#xA;&#x9;&#x9;&#x9;&#x9;l0.28,14.05c1.02,0.52,5.02,2.52,7.84,3.26c2.51,0.66,5.43,1.27,8.43,1.27c12.06,0,21.28-5.91,21.28-17.17&#xA;&#x9;&#x9;&#x9;&#x9;C720.37,323.77,712.82,318.4,703.55,314.13z"></path>
&#x9;&#x9;</g>
&#x9;&#x9;<g>
&#x9;&#x9;&#x9;<path class="st1" d="M993.73,348.13c0,0-5.17-2.21-5.17-12.78v-11.76h6.79c6.13,0,10.33,0.34,11.56,3.32v-13.12&#xA;&#x9;&#x9;&#x9;&#x9;c-1.17,2.96-5.18,3.49-11.56,3.49h-6.79v-16.58c0-2.41,0-2.41,3.04-2.41h8.19c5.02,0,7.48,0.84,9.54,3.36&#xA;&#x9;&#x9;&#x9;&#x9;c2.05,2.52,3.37,6.32,3.37,6.32v-15.02h-41.36c1.3,0.87,4.68,3.94,4.68,12.49L976,335.35c0,10.57-5.17,12.78-5.17,12.78H993.73z"></path>
&#x9;&#x9;</g>
&#x9;&#x9;<g>
&#x9;&#x9;&#x9;<path class="st1" d="M792.2,300.85c0-2.41,0-2.41,3.04-2.41h2.59c5.02,0,7.48,0.84,9.54,3.36c2.05,2.52,3.37,6.32,3.37,6.32&#xA;&#x9;&#x9;&#x9;&#x9;v-15.18h-49.47v15.18c0,0,1.32-3.8,3.37-6.32c2.05-2.52,4.52-3.36,9.54-3.36h2.59c3.04,0,3.04,0,3.04,2.41v34.5&#xA;&#x9;&#x9;&#x9;&#x9;c0,10.57-5.17,12.78-5.17,12.78h22.73c0,0-5.17-2.21-5.17-12.78V300.85z"></path>
&#x9;&#x9;</g>
&#x9;&#x9;<g>
&#x9;&#x9;&#x9;<path class="st1" d="M395.85,323.44l0.01-18c0-8.55-3.38-11.62-4.68-12.49h15.96c-1.3,0.87-4.68,3.94-4.68,12.49l0.01,17.72&#xA;&#x9;&#x9;&#x9;&#x9;c0,0,2.48,25.88-21.34,26.29c0,0-24.64,1.35-24.64-19.4l0.01-24.62c0-8.55-3.38-11.62-4.68-12.49h21.34&#xA;&#x9;&#x9;&#x9;&#x9;c-1.3,0.87-4.68,3.94-4.68,12.49l0.01,20.94c0,17.58,13.33,17.15,13.33,17.15S395.85,346.12,395.85,323.44z"></path>
&#x9;&#x9;</g>
&#x9;&#x9;<g>
&#x9;&#x9;&#x9;<path class="st1" d="M848.34,293.06c0,0,6.46,3.43,4.09,8.49l-8.17,16.08l-8.6-15.62c-3.02-5.56,2.54-8.95,2.54-8.95h-23.65&#xA;&#x9;&#x9;&#x9;&#x9;c0,0,5.04,2.67,8.96,9.33l12.26,21.05v11.9c0,10.57-5.17,12.78-5.17,12.78h22.41c0,0-5.17-2.21-5.17-12.78V322.8l10.3-19.3&#xA;&#x9;&#x9;&#x9;&#x9;c3.89-7.52,10.55-10.44,10.55-10.44H848.34z"></path>
&#x9;&#x9;</g>
&#x9;&#x9;<g>
&#x9;&#x9;&#x9;<path class="st1" d="M654.89,308.88c0,4.23-1.25,7.28-3.94,9.6l0,0c-1.61,1.41-4.32,2.1-8.29,2.1h-1.62v-19.85&#xA;&#x9;&#x9;&#x9;&#x9;c0-1.58,0.16-2.34,0.56-2.69c0.65-0.53,1.89-0.8,3.68-0.8C649.93,297.24,654.89,300.3,654.89,308.88z M665.82,335.73&#xA;&#x9;&#x9;&#x9;&#x9;c-2.44-4-6.14-9.99-7.97-13.37c3.93-1.64,9.91-5.44,9.91-13.44v-0.01c0.03-0.39,0.05-0.79,0.05-1.21c0-4.82-2.08-8.92-5.87-11.52&#xA;&#x9;&#x9;&#x9;&#x9;c-3.5-2.35-7.78-3.22-15.8-3.22h-21.78c1.3,0.87,4.68,3.94,4.68,12.49l-0.01,29.92c0,10.57-5.17,12.78-5.17,12.78h22.36&#xA;&#x9;&#x9;&#x9;&#x9;c0,0-5.17-2.21-5.17-12.78v-10.47h1.7c2.52,0,3.96,0.88,5.33,3.22c0.85,1.5,1.67,3.01,2.46,4.47c1.56,2.87,3.57,6.71,5.04,8.95&#xA;&#x9;&#x9;&#x9;&#x9;c3.47,5.29,6.27,7.6,16.91,7.26c0,0,1.81-0.06,3.2-0.18C675.69,348.6,672.04,345.96,665.82,335.73z"></path>
&#x9;&#x9;</g>
&#x9;&#x9;<g>
&#x9;&#x9;&#x9;<path class="st1" d="M1270.83,308.88c0,4.23-1.25,7.28-3.94,9.6l0,0c-1.61,1.41-4.32,2.1-8.29,2.1h-1.62v-19.85&#xA;&#x9;&#x9;&#x9;&#x9;c0-1.58,0.16-2.34,0.56-2.69c0.65-0.53,1.89-0.8,3.68-0.8C1265.87,297.24,1270.83,300.3,1270.83,308.88z M1281.76,335.73&#xA;&#x9;&#x9;&#x9;&#x9;c-2.44-4-6.14-9.99-7.97-13.37c3.93-1.64,9.91-5.44,9.91-13.44v-0.01c0.03-0.39,0.05-0.79,0.05-1.21c0-4.82-2.08-8.92-5.87-11.52&#xA;&#x9;&#x9;&#x9;&#x9;c-3.5-2.35-7.78-3.22-15.8-3.22h-21.78c1.3,0.87,4.68,3.94,4.68,12.49l-0.01,29.92c0,10.57-5.17,12.78-5.17,12.78h22.36&#xA;&#x9;&#x9;&#x9;&#x9;c0,0-5.17-2.21-5.17-12.78v-10.47h1.7c2.52,0,3.96,0.88,5.33,3.22c0.85,1.5,1.67,3.01,2.46,4.47c1.56,2.87,3.57,6.71,5.04,8.95&#xA;&#x9;&#x9;&#x9;&#x9;c3.47,5.29,6.27,7.6,16.91,7.26c0,0,1.81-0.06,3.2-0.18C1291.63,348.6,1287.98,345.96,1281.76,335.73z"></path>
&#x9;&#x9;</g>
&#x9;</g>
</g>
</svg>